<?xml version="1.0" encoding="utf-8"?>
<!-- Generator: Circuit Diagram 3.1.0  (Build 3), cdlibrary.dll 1.0.0.0 -->
<!DOCTYPE svg PUBLIC "-//W3C//DTD SVG 1.1//EN" "http://www.w3.org/Graphics/SVG/1.1/DTD/svg11.dtd">
<svg version="1.1" width="225" height="125" xmlns="http://www.w3.org/2000/svg">
  <text x="70" y="30" style="font-family:Arial;font-size:10;text-anchor:middle" dy=".3em">B1</text>
  <text x="140" y="90" style="font-family:Arial;font-size:10;text-anchor:middle" dy=".3em">L1 (blue)</text>
  <text x="80" y="90" style="font-family:Arial;font-size:10;text-anchor:middle" dy=".3em">R1</text>
  <line x1="40" y1="70" x2="60" y2="70" style="stroke:rgb(0,0,0);stroke-linecap:square;stroke-width:2" />
  <rect x="60" y="62" width="40" height="16" style="fill-opacity:0;stroke:rgb(0,0,0);stroke-width:2" />
  <line x1="100" y1="70" x2="120" y2="70" style="stroke:rgb(0,0,0);stroke-linecap:square;stroke-width:2" />
  <text x="80" y="53" style="font-family:Arial;font-size:10;text-anchor:middle" dy=".3em">100 Ω</text>
  <line x1="120" y1="70" x2="160" y2="70" style="stroke:rgb(0,0,0);stroke-linecap:square;stroke-width:2" />
  <path d="M 147,70 M 147,62 L 147,78 M 147,70 L 132,78 L 132,62 L 147,70" style="fill-opacity:0;fill:rgb(0,0,0);stroke:rgb(0,0,0);stroke-width:2" />
  <path d="M 145,70 M 143,59 L 151,51 M 152,50 L 148,52 L 150,54 L 152,50 L 148,52" style="fill-opacity:0;fill:rgb(0,0,0);stroke:rgb(0,0,0);stroke-width:2" />
  <path d="M 145,70 M 149,66 L 157,58 M 158,57 L 154,59 L 156,61 L 158,57 L 154,59" style="fill-opacity:0;fill:rgb(0,0,0);stroke:rgb(0,0,0);stroke-width:2" />
  <line x1="40" y1="20" x2="56" y2="20" style="stroke:rgb(0,0,0);stroke-linecap:square;stroke-width:2" />
  <line x1="84" y1="20" x2="100" y2="20" style="stroke:rgb(0,0,0);stroke-linecap:square;stroke-width:2" />
  <ellipse cx="59" cy="20" rx="3" ry="3" style="fill-opacity:0;fill:rgb(0,0,0);stroke:rgb(0,0,0);stroke-width:2" />
  <ellipse cx="81" cy="20" rx="3" ry="3" style="fill-opacity:0;fill:rgb(0,0,0);stroke:rgb(0,0,0);stroke-width:2" />
  <line x1="62" y1="18" x2="79" y2="12" style="stroke:rgb(0,0,0);stroke-linecap:square;stroke-width:2" />
  <line x1="190" y1="90" x2="190" y2="88" style="stroke:rgb(0,0,0);stroke-linecap:square;stroke-width:2" />
  <line x1="182" y1="88" x2="198" y2="88" style="stroke:rgb(0,0,0);stroke-linecap:square;stroke-width:2" />
  <line x1="185" y1="94" x2="195" y2="94" style="stroke:rgb(0,0,0);stroke-linecap:square;stroke-width:2" />
  <line x1="188" y1="100" x2="192" y2="100" style="stroke:rgb(0,0,0);stroke-linecap:square;stroke-width:2" />
  <text x="30" y="20" style="font-family:Arial;font-size:10;text-anchor:middle" dy=".3em">15</text>
  <text x="30" y="70" style="font-family:Arial;font-size:10;text-anchor:middle" dy=".3em">14</text>
  <text x="190" y="110" style="font-family:Arial;font-size:10;text-anchor:middle" dy=".3em">G1</text>
  <line x1="100" y1="20" x2="160" y2="20" style="stroke:rgb(0,0,0);stroke-linecap:square;stroke-width:2" />
  <line x1="190" y1="20" x2="190" y2="90" style="stroke:rgb(0,0,0);stroke-linecap:square;stroke-width:2" />
  <line x1="160" y1="20" x2="190" y2="20" style="stroke:rgb(0,0,0);stroke-linecap:square;stroke-width:2" />
  <line x1="160" y1="70" x2="190" y2="70" style="stroke:rgb(0,0,0);stroke-linecap:square;stroke-width:2" />
  <ellipse cx="190" cy="70" rx="2" ry="2" style="fill-opacity:1;fill:rgb(0,0,0);stroke:rgb(0,0,0);stroke-width:2" />
</svg>