<?xml version="1.0" encoding="utf-8"?>
<!-- Generator: Circuit Diagram 3.1.0  (Build 3), cdlibrary.dll 1.0.0.0 -->
<!DOCTYPE svg PUBLIC "-//W3C//DTD SVG 1.1//EN" "http://www.w3.org/Graphics/SVG/1.1/DTD/svg11.dtd">
<svg version="1.1" width="250" height="225" xmlns="http://www.w3.org/2000/svg">
  <text x="40" y="110" style="font-family:Arial;font-size:10;text-anchor:middle" dy=".3em">17</text>
  <line x1="130" y1="110" x2="170" y2="110" style="stroke:rgb(0,0,0);stroke-linecap:square;stroke-width:2" />
  <path d="M 157,110 M 157,102 L 157,118 M 157,110 L 142,118 L 142,102 L 157,110" style="fill-opacity:0;fill:rgb(0,0,0);stroke:rgb(0,0,0);stroke-width:2" />
  <path d="M 155,110 M 153,99 L 161,91 M 162,90 L 158,92 L 160,94 L 162,90 L 158,92" style="fill-opacity:0;fill:rgb(0,0,0);stroke:rgb(0,0,0);stroke-width:2" />
  <path d="M 155,110 M 159,106 L 167,98 M 168,97 L 164,99 L 166,101 L 168,97 L 164,99" style="fill-opacity:0;fill:rgb(0,0,0);stroke:rgb(0,0,0);stroke-width:2" />
  <line x1="50" y1="110" x2="70" y2="110" style="stroke:rgb(0,0,0);stroke-linecap:square;stroke-width:2" />
  <rect x="70" y="102" width="40" height="16" style="fill-opacity:0;stroke:rgb(0,0,0);stroke-width:2" />
  <line x1="110" y1="110" x2="130" y2="110" style="stroke:rgb(0,0,0);stroke-linecap:square;stroke-width:2" />
  <text x="90" y="93" style="font-family:Arial;font-size:10;text-anchor:middle" dy=".3em">100 Ω</text>
  <text x="90" y="130" style="font-family:Arial;font-size:10;text-anchor:middle" dy=".3em">R7</text>
  <text x="150" y="130" style="font-family:Arial;font-size:10;text-anchor:middle" dy=".3em">L7 (green)</text>
  <text x="80" y="70" style="font-family:Arial;font-size:10;text-anchor:middle" dy=".3em">B6</text>
  <text x="150" y="190" style="font-family:Arial;font-size:10;text-anchor:middle" dy=".3em">L6 (red)</text>
  <text x="90" y="190" style="font-family:Arial;font-size:10;text-anchor:middle" dy=".3em">R6</text>
  <line x1="50" y1="170" x2="70" y2="170" style="stroke:rgb(0,0,0);stroke-linecap:square;stroke-width:2" />
  <rect x="70" y="162" width="40" height="16" style="fill-opacity:0;stroke:rgb(0,0,0);stroke-width:2" />
  <line x1="110" y1="170" x2="130" y2="170" style="stroke:rgb(0,0,0);stroke-linecap:square;stroke-width:2" />
  <text x="90" y="153" style="font-family:Arial;font-size:10;text-anchor:middle" dy=".3em">100 Ω</text>
  <line x1="130" y1="170" x2="170" y2="170" style="stroke:rgb(0,0,0);stroke-linecap:square;stroke-width:2" />
  <path d="M 157,170 M 157,162 L 157,178 M 157,170 L 142,178 L 142,162 L 157,170" style="fill-opacity:0;fill:rgb(0,0,0);stroke:rgb(0,0,0);stroke-width:2" />
  <path d="M 155,170 M 153,159 L 161,151 M 162,150 L 158,152 L 160,154 L 162,150 L 158,152" style="fill-opacity:0;fill:rgb(0,0,0);stroke:rgb(0,0,0);stroke-width:2" />
  <path d="M 155,170 M 159,166 L 167,158 M 168,157 L 164,159 L 166,161 L 168,157 L 164,159" style="fill-opacity:0;fill:rgb(0,0,0);stroke:rgb(0,0,0);stroke-width:2" />
  <line x1="50" y1="60" x2="66" y2="60" style="stroke:rgb(0,0,0);stroke-linecap:square;stroke-width:2" />
  <line x1="94" y1="60" x2="110" y2="60" style="stroke:rgb(0,0,0);stroke-linecap:square;stroke-width:2" />
  <ellipse cx="69" cy="60" rx="3" ry="3" style="fill-opacity:0;fill:rgb(0,0,0);stroke:rgb(0,0,0);stroke-width:2" />
  <ellipse cx="91" cy="60" rx="3" ry="3" style="fill-opacity:0;fill:rgb(0,0,0);stroke:rgb(0,0,0);stroke-width:2" />
  <line x1="72" y1="58" x2="89" y2="52" style="stroke:rgb(0,0,0);stroke-linecap:square;stroke-width:2" />
  <line x1="200" y1="190" x2="200" y2="188" style="stroke:rgb(0,0,0);stroke-linecap:square;stroke-width:2" />
  <line x1="192" y1="188" x2="208" y2="188" style="stroke:rgb(0,0,0);stroke-linecap:square;stroke-width:2" />
  <line x1="195" y1="194" x2="205" y2="194" style="stroke:rgb(0,0,0);stroke-linecap:square;stroke-width:2" />
  <line x1="198" y1="200" x2="202" y2="200" style="stroke:rgb(0,0,0);stroke-linecap:square;stroke-width:2" />
  <text x="40" y="60" style="font-family:Arial;font-size:10;text-anchor:middle" dy=".3em">27</text>
  <text x="40" y="170" style="font-family:Arial;font-size:10;text-anchor:middle" dy=".3em">4</text>
  <text x="200" y="210" style="font-family:Arial;font-size:10;text-anchor:middle" dy=".3em">G5</text>
  <text x="40" y="20" style="font-family:Arial;font-size:10;text-anchor:middle" dy=".3em">22</text>
  <line x1="50" y1="20" x2="66" y2="20" style="stroke:rgb(0,0,0);stroke-linecap:square;stroke-width:2" />
  <line x1="94" y1="20" x2="110" y2="20" style="stroke:rgb(0,0,0);stroke-linecap:square;stroke-width:2" />
  <ellipse cx="69" cy="20" rx="3" ry="3" style="fill-opacity:0;fill:rgb(0,0,0);stroke:rgb(0,0,0);stroke-width:2" />
  <ellipse cx="91" cy="20" rx="3" ry="3" style="fill-opacity:0;fill:rgb(0,0,0);stroke:rgb(0,0,0);stroke-width:2" />
  <line x1="72" y1="18" x2="89" y2="12" style="stroke:rgb(0,0,0);stroke-linecap:square;stroke-width:2" />
  <text x="80" y="30" style="font-family:Arial;font-size:10;text-anchor:middle" dy=".3em">B7</text>
  <line x1="170" y1="110" x2="200" y2="110" style="stroke:rgb(0,0,0);stroke-linecap:square;stroke-width:2" />
  <line x1="110" y1="60" x2="170" y2="60" style="stroke:rgb(0,0,0);stroke-linecap:square;stroke-width:2" />
  <line x1="200" y1="60" x2="200" y2="190" style="stroke:rgb(0,0,0);stroke-linecap:square;stroke-width:2" />
  <line x1="170" y1="60" x2="200" y2="60" style="stroke:rgb(0,0,0);stroke-linecap:square;stroke-width:2" />
  <line x1="170" y1="170" x2="200" y2="170" style="stroke:rgb(0,0,0);stroke-linecap:square;stroke-width:2" />
  <line x1="170" y1="20" x2="200" y2="20" style="stroke:rgb(0,0,0);stroke-linecap:square;stroke-width:2" />
  <line x1="200" y1="20" x2="200" y2="150" style="stroke:rgb(0,0,0);stroke-linecap:square;stroke-width:2" />
  <line x1="110" y1="20" x2="170" y2="20" style="stroke:rgb(0,0,0);stroke-linecap:square;stroke-width:2" />
  <ellipse cx="200" cy="110" rx="2" ry="2" style="fill-opacity:1;fill:rgb(0,0,0);stroke:rgb(0,0,0);stroke-width:2" />
  <ellipse cx="200" cy="60" rx="2" ry="2" style="fill-opacity:1;fill:rgb(0,0,0);stroke:rgb(0,0,0);stroke-width:2" />
  <ellipse cx="200" cy="170" rx="2" ry="2" style="fill-opacity:1;fill:rgb(0,0,0);stroke:rgb(0,0,0);stroke-width:2" />
</svg>