<?xml version="1.0" encoding="utf-8"?>
<!-- Generator: Circuit Diagram 3.1.0  (Build 3), cdlibrary.dll 1.0.0.0 -->
<!DOCTYPE svg PUBLIC "-//W3C//DTD SVG 1.1//EN" "http://www.w3.org/Graphics/SVG/1.1/DTD/svg11.dtd">
<svg version="1.1" width="250" height="180" xmlns="http://www.w3.org/2000/svg">
  <text x="200" y="170" style="font-family:Arial;font-size:10;text-anchor:middle" dy=".3em">G3</text>
  <text x="40" y="130" style="font-family:Arial;font-size:10;text-anchor:middle" dy=".3em">25</text>
  <text x="40" y="20" style="font-family:Arial;font-size:10;text-anchor:middle" dy=".3em">7</text>
  <line x1="200" y1="150" x2="200" y2="148" style="stroke:rgb(0,0,0);stroke-linecap:square;stroke-width:2" />
  <line x1="192" y1="148" x2="208" y2="148" style="stroke:rgb(0,0,0);stroke-linecap:square;stroke-width:2" />
  <line x1="195" y1="154" x2="205" y2="154" style="stroke:rgb(0,0,0);stroke-linecap:square;stroke-width:2" />
  <line x1="198" y1="160" x2="202" y2="160" style="stroke:rgb(0,0,0);stroke-linecap:square;stroke-width:2" />
  <line x1="50" y1="20" x2="66" y2="20" style="stroke:rgb(0,0,0);stroke-linecap:square;stroke-width:2" />
  <line x1="94" y1="20" x2="110" y2="20" style="stroke:rgb(0,0,0);stroke-linecap:square;stroke-width:2" />
  <ellipse cx="69" cy="20" rx="3" ry="3" style="fill-opacity:0;fill:rgb(0,0,0);stroke:rgb(0,0,0);stroke-width:2" />
  <ellipse cx="91" cy="20" rx="3" ry="3" style="fill-opacity:0;fill:rgb(0,0,0);stroke:rgb(0,0,0);stroke-width:2" />
  <line x1="72" y1="18" x2="89" y2="12" style="stroke:rgb(0,0,0);stroke-linecap:square;stroke-width:2" />
  <line x1="130" y1="130" x2="170" y2="130" style="stroke:rgb(0,0,0);stroke-linecap:square;stroke-width:2" />
  <path d="M 157,130 M 157,122 L 157,138 M 157,130 L 142,138 L 142,122 L 157,130" style="fill-opacity:0;fill:rgb(0,0,0);stroke:rgb(0,0,0);stroke-width:2" />
  <path d="M 155,130 M 153,119 L 161,111 M 162,110 L 158,112 L 160,114 L 162,110 L 158,112" style="fill-opacity:0;fill:rgb(0,0,0);stroke:rgb(0,0,0);stroke-width:2" />
  <path d="M 155,130 M 159,126 L 167,118 M 168,117 L 164,119 L 166,121 L 168,117 L 164,119" style="fill-opacity:0;fill:rgb(0,0,0);stroke:rgb(0,0,0);stroke-width:2" />
  <line x1="50" y1="130" x2="70" y2="130" style="stroke:rgb(0,0,0);stroke-linecap:square;stroke-width:2" />
  <rect x="70" y="122" width="40" height="16" style="fill-opacity:0;stroke:rgb(0,0,0);stroke-width:2" />
  <line x1="110" y1="130" x2="130" y2="130" style="stroke:rgb(0,0,0);stroke-linecap:square;stroke-width:2" />
  <text x="90" y="113" style="font-family:Arial;font-size:10;text-anchor:middle" dy=".3em">100 Ω</text>
  <text x="90" y="150" style="font-family:Arial;font-size:10;text-anchor:middle" dy=".3em">R3</text>
  <text x="150" y="150" style="font-family:Arial;font-size:10;text-anchor:middle" dy=".3em">L3 (green)</text>
  <text x="80" y="30" style="font-family:Arial;font-size:10;text-anchor:middle" dy=".3em">B4</text>
  <text x="150" y="90" style="font-family:Arial;font-size:10;text-anchor:middle" dy=".3em">L4 (green)</text>
  <text x="90" y="90" style="font-family:Arial;font-size:10;text-anchor:middle" dy=".3em">R4</text>
  <line x1="50" y1="70" x2="70" y2="70" style="stroke:rgb(0,0,0);stroke-linecap:square;stroke-width:2" />
  <rect x="70" y="62" width="40" height="16" style="fill-opacity:0;stroke:rgb(0,0,0);stroke-width:2" />
  <line x1="110" y1="70" x2="130" y2="70" style="stroke:rgb(0,0,0);stroke-linecap:square;stroke-width:2" />
  <text x="90" y="53" style="font-family:Arial;font-size:10;text-anchor:middle" dy=".3em">100 Ω</text>
  <line x1="130" y1="70" x2="170" y2="70" style="stroke:rgb(0,0,0);stroke-linecap:square;stroke-width:2" />
  <path d="M 157,70 M 157,62 L 157,78 M 157,70 L 142,78 L 142,62 L 157,70" style="fill-opacity:0;fill:rgb(0,0,0);stroke:rgb(0,0,0);stroke-width:2" />
  <path d="M 155,70 M 153,59 L 161,51 M 162,50 L 158,52 L 160,54 L 162,50 L 158,52" style="fill-opacity:0;fill:rgb(0,0,0);stroke:rgb(0,0,0);stroke-width:2" />
  <path d="M 155,70 M 159,66 L 167,58 M 168,57 L 164,59 L 166,61 L 168,57 L 164,59" style="fill-opacity:0;fill:rgb(0,0,0);stroke:rgb(0,0,0);stroke-width:2" />
  <text x="40" y="70" style="font-family:Arial;font-size:10;text-anchor:middle" dy=".3em">8</text>
  <line x1="170" y1="130" x2="200" y2="130" style="stroke:rgb(0,0,0);stroke-linecap:square;stroke-width:2" />
  <line x1="170" y1="20" x2="200" y2="20" style="stroke:rgb(0,0,0);stroke-linecap:square;stroke-width:2" />
  <line x1="200" y1="20" x2="200" y2="150" style="stroke:rgb(0,0,0);stroke-linecap:square;stroke-width:2" />
  <line x1="110" y1="20" x2="170" y2="20" style="stroke:rgb(0,0,0);stroke-linecap:square;stroke-width:2" />
  <line x1="170" y1="70" x2="200" y2="70" style="stroke:rgb(0,0,0);stroke-linecap:square;stroke-width:2" />
  <ellipse cx="200" cy="130" rx="2" ry="2" style="fill-opacity:1;fill:rgb(0,0,0);stroke:rgb(0,0,0);stroke-width:2" />
  <ellipse cx="200" cy="70" rx="2" ry="2" style="fill-opacity:1;fill:rgb(0,0,0);stroke:rgb(0,0,0);stroke-width:2" />
</svg>